<svg width="212" height="48" viewBox="0 0 212 48" fill="none" xmlns="http://www.w3.org/2000/svg">
<path d="M114.853 48C125.771 48 133.553 39.7149 133.553 29.5056V0H127.824V1.2294C127.824 10.5301 125.446 11.0111 114.853 11.0111C103.989 11.0111 96.152 19.2962 96.152 29.5056C96.152 39.7149 103.989 48 114.853 48ZM198.628 47.8396C203.6 47.8396 207.546 46.4499 210.14 44.5256C210.789 44.098 211.059 43.3497 211.059 42.7082C211.059 41.4254 210.032 40.5702 208.897 40.5702C208.302 40.5702 207.762 40.9443 207.329 41.1581C204.789 42.4944 202.303 43.2428 198.79 43.2428C191.98 43.2428 185.98 38.1648 185.98 29.4521C185.98 20.7394 191.98 15.6615 198.79 15.6615C202.303 15.6615 204.789 16.3563 207.329 17.7461C207.762 17.9599 208.302 18.2806 208.897 18.2806C210.032 18.2806 211.059 17.4254 211.059 16.1425C211.059 15.5011 210.789 14.8062 210.14 14.3786C207.546 12.4543 203.6 11.0111 198.628 11.0111C188.304 11.0111 180.089 18.7082 180.089 29.4521C180.089 40.1425 188.304 47.8396 198.628 47.8396ZM5.78317 47.1448V24.2138C5.78317 20.5256 8.75583 17.5857 12.4852 17.5857C16.2145 17.5857 19.1872 20.5256 19.1872 24.2138V47.1448H24.9703V24.2138C24.9703 20.5256 27.943 17.5857 31.6723 17.5857C35.4557 17.5857 38.4284 20.5256 38.4284 24.2138V47.1448H44.2116V24.2138C44.2116 18.6548 40.212 11.8664 31.6723 11.8664H0V47.1448H5.78317ZM70.8034 48C81.1806 48 89.5581 39.7149 89.5581 29.5056V11.8664H77.0189V23.3051C77.0189 26.7261 74.3165 29.4521 70.8034 29.4521C67.3443 29.4521 64.6418 26.7261 64.6418 23.3051V11.8664H52.1026V29.5056C52.1026 39.7149 60.4801 48 70.8034 48ZM173.279 47.1448V30.3608C173.279 20.1514 164.902 11.8664 154.578 11.8664H149.606C148.363 11.8664 147.174 12.5612 147.174 14.0579C147.174 16.1425 149.336 16.4633 149.336 18.8151C149.336 20.1514 148.363 20.8463 146.957 21.7016C143.012 24 139.715 28.2762 139.715 33.7283C139.715 41.1581 145.768 47.1448 153.281 47.1448H173.279ZM114.853 43.3497C107.394 43.3497 102.097 37.2027 102.097 29.5056C102.097 21.8085 107.394 15.6615 114.853 15.6615C122.365 15.6615 127.662 21.8085 127.662 29.5056C127.662 37.2027 122.365 43.3497 114.853 43.3497ZM154.578 39.6615C151.119 39.6615 148.363 36.9354 148.363 33.5145C148.363 30.0935 151.119 27.3675 154.578 27.3675C158.037 27.3675 160.794 30.0935 160.794 33.5145C160.794 36.9354 158.037 39.6615 154.578 39.6615Z" fill="black"/>
</svg>
